<?xml version="1.0"?><svg xmlns="http://www.w3.org/2000/svg"  viewBox="0 0 24 24" width="24px" height="24px">    <path d="M 3 6 C 1.895 6 1 6.895 1 8 L 1 17 C 1 18.105 1.895 19 3 19 L 21 19 C 22.105 19 23 18.105 23 17 L 23 8 C 23 6.895 22.105 6 21 6 L 3 6 z M 3 8 L 21 8 L 21 17 L 3 17 L 3 8 z M 5 10 L 5 12 L 7 12 L 7 10 L 5 10 z M 8 10 L 8 12 L 10 12 L 10 10 L 8 10 z M 11 10 L 11 12 L 13 12 L 13 10 L 11 10 z M 14 10 L 14 12 L 16 12 L 16 10 L 14 10 z M 17 10 L 17 12 L 19 12 L 19 10 L 17 10 z M 5 13 L 5 15 L 7 15 L 7 13 L 5 13 z M 8 13 L 8 15 L 16 15 L 16 13 L 8 13 z M 17 13 L 17 15 L 19 15 L 19 13 L 17 13 z"/></svg>